<?xml version="1.0" encoding="utf-8"?>
<svg xmlns="http://www.w3.org/2000/svg" viewBox="307.928 148.598 74.7011 102.518" width="74.7011px" height="102.518px">
  <g id="object-0" transform="matrix(1, 0, 0, 1, 0, 3.552713678800501e-15)">
    <g id="Layer_1" style="" transform="matrix(0.541714, 0, 0, 0.541714, 175.353546, 114.265274)">
      <path fill="#333333" opacity="1.000000" stroke="none" d="M 333.665 241.218 C 334.182 243.146 334.604 244.712 335.099 246.55 C 318.918 251.331 303.501 249.679 288.514 243.662 C 274.23 237.928 262.506 229.015 255.714 214.66 C 247.792 197.917 248.612 180.954 257.433 165.335 C 265.224 151.54 274.892 138.718 284.527 126.073 C 298.257 108.054 311.077 87.656 315.464 64.976 C 315.631 64.112 316.232 63.444 316.223 63.378 C 320.056 69.659 320.223 76.017 320.453 82.098 C 321.168 101.029 315.586 118.733 309.736 136.492 C 305.816 148.395 302.2 160.73 301.03 173.116 C 299.828 185.835 304.636 197.93 312.086 208.59 C 318.075 217.159 324.155 225.665 330.08 234.277 C 331.478 236.309 332.419 238.656 333.665 241.218 Z" style="stroke-width: 1px;"/>
      <path fill="#2E7D32" opacity="1.000000" stroke="none" d="M 330.328 178.524 C 338.507 187.84 347.777 196.17 349.731 208.871 C 350.782 215.704 350.712 222.71 351.175 230.085 C 352.62 225.451 354.794 220.861 355.401 216.071 C 357.048 203.066 352.584 191.334 346.729 179.985 C 339.466 165.905 331.831 151.98 325.393 137.526 C 321.068 127.814 321.936 117.106 323.305 106.652 C 323.808 102.806 324 98.919 324.844 94.983 C 329.926 112.692 341.507 125.66 353.852 138.377 C 361.642 146.4 368.775 155.245 375.074 164.491 C 386.464 181.21 384.539 207.38 372.235 223.314 C 365.093 232.564 355.916 238.699 345.463 243.216 C 344.252 243.739 341.033 242.826 340.89 242.135 C 338.041 228.364 328.767 218.49 320.68 207.85 C 312.873 197.578 307.232 186.16 308.783 172.97 C 309.922 163.278 313.308 153.509 316.528 144.237 C 316.526 144.176 317.222 150.191 317.361 153.026 C 317.809 162.177 322.898 169.094 328.46 175.773 C 329.089 176.53 329.551 177.426 330.328 178.524 Z" style="stroke-width: 1px;"/>
    </g>
    <text style="fill: rgb(51, 51, 51); font-size: 50px; white-space: pre;" x="307.928" y="238.316">✏️</text>
  </g>
</svg>
